<svg width="249" height="42" viewBox="0 0 249 42" fill="none" xmlns="http://www.w3.org/2000/svg">
<g clip-path="url(#clip0_687_1815)">
<path d="M39.5838 3.02572L37.5069 1.24434C36.8365 0.669291 35.8268 0.746626 35.2518 1.41707L27.8042 10.1001C27.2292 10.7706 27.3065 11.7803 27.9769 12.3553L30.0539 14.1367C30.7243 14.7117 31.734 14.6344 32.309 13.9639L39.7566 5.28088C40.3316 4.61043 40.2543 3.60077 39.5838 3.02572Z" fill="#4D4D4D"/>
<path d="M39.5487 16.0316L37.4718 14.2502C36.8013 13.6752 35.7916 13.7525 35.2166 14.4229L27.769 23.106C27.194 23.7764 27.2713 24.7861 27.9418 25.3612L30.0187 27.1425C30.6891 27.7176 31.6988 27.6403 32.2738 26.9698L39.7214 18.2867C40.2964 17.6163 40.2191 16.6066 39.5487 16.0316Z" fill="#4D4D4D"/>
<path d="M39.5487 29.1615L37.4718 27.3801C36.8013 26.805 35.7916 26.8824 35.2166 27.5528L27.769 36.2359C27.194 36.9063 27.2713 37.916 27.9418 38.491L30.0187 40.2724C30.6891 40.8475 31.6988 40.7701 32.2738 40.0997L39.7214 31.4166C40.2964 30.7462 40.2191 29.7365 39.5487 29.1615Z" fill="#4D4D4D"/>
<path d="M26.4901 3.02182L24.4132 1.24043C23.7427 0.665385 22.7331 0.74272 22.158 1.41316L14.7105 10.0962C14.1354 10.7667 14.2127 11.7763 14.8832 12.3514L16.9601 14.1328C17.6305 14.7078 18.6402 14.6305 19.2153 13.96L26.6628 5.27697C27.2379 4.60653 27.1605 3.59686 26.4901 3.02182Z" fill="#4D4D4D"/>
<path d="M26.4549 16.0277L24.378 14.2463C23.7076 13.6712 22.6979 13.7486 22.1229 14.419L14.6753 23.1021C14.1003 23.7725 14.1776 24.7822 14.848 25.3572L16.9249 27.1386C17.5954 27.7137 18.6051 27.6363 19.1801 26.9659L26.6277 18.2828C27.2027 17.6124 27.1254 16.6027 26.4549 16.0277Z" fill="#4D4D4D"/>
<path d="M26.4549 29.1576L24.378 27.3762C23.7076 26.8011 22.6979 26.8785 22.1229 27.5489L14.6753 36.232C14.1003 36.9024 14.1776 37.9121 14.848 38.4871L16.9249 40.2685C17.5954 40.8436 18.6051 40.7662 19.1801 40.0958L26.6277 31.4127C27.2027 30.7423 27.1254 29.7326 26.4549 29.1576Z" fill="#4D4D4D"/>
<path d="M13.3768 3.02084L11.2999 1.23945C10.6294 0.664408 9.61977 0.741743 9.04473 1.41219L1.59717 10.0953C1.02213 10.7657 1.09947 11.7754 1.76991 12.3504L3.84682 14.1318C4.51726 14.7068 5.52693 14.6295 6.10197 13.9591L13.5495 5.27599C14.1246 4.60555 14.0472 3.59588 13.3768 3.02084Z" fill="#4D4D4D"/>
<path d="M13.3494 16.0316L11.2725 14.2502C10.6021 13.6752 9.59243 13.7525 9.01738 14.4229L1.56983 23.106C0.994786 23.7764 1.07212 24.7861 1.74256 25.3612L3.81948 27.1425C4.48992 27.7176 5.49959 27.6403 6.07463 26.9698L13.5222 18.2867C14.0972 17.6163 14.0199 16.6066 13.3494 16.0316Z" fill="#4D4D4D"/>
<path d="M13.3494 29.1615L11.2725 27.3801C10.6021 26.805 9.59243 26.8824 9.01738 27.5528L1.56983 36.2359C0.994786 36.9063 1.07212 37.916 1.74256 38.491L3.81948 40.2724C4.48992 40.8475 5.49959 40.7701 6.07463 40.0997L13.5222 31.4166C14.0972 30.7462 14.0199 29.7365 13.3494 29.1615Z" fill="#4D4D4D"/>
<path d="M55.7675 17.1284C58.2175 14.5226 61.4507 13.2197 65.467 13.2197C69.3961 13.2197 72.5285 14.5226 74.864 17.1284C77.1995 19.7342 78.3673 23.0817 78.3673 27.1711V29.1561H59.1334C59.3974 30.7968 60.223 32.2949 61.4691 33.3943C62.6705 34.4229 64.2086 34.9731 65.7898 34.9399C68.5923 34.9399 70.7126 33.9852 72.1508 32.0756L77.1171 35.7037C75.9198 37.4372 74.2876 38.8254 72.3844 39.729C70.3285 40.7179 68.0713 41.2165 65.7902 41.1854C61.7426 41.1854 58.4523 39.8642 55.9193 37.2219C54.6491 35.8824 53.6569 34.3044 53.0002 32.5792C52.3434 30.854 52.035 29.0158 52.0928 27.1707C52.0928 23.1273 53.3177 19.7798 55.7675 17.1284ZM59.2019 24.547H71.5321C71.2645 23.0269 70.5467 21.6222 69.4715 20.5147C68.9404 20.0073 68.3129 19.6116 67.6261 19.3509C66.9394 19.0902 66.2073 18.9698 65.4733 18.9968C63.9586 18.9426 62.4817 19.4768 61.3521 20.4873C60.2241 21.5772 59.4753 23.0001 59.216 24.547H59.2019Z" fill="#4D4D4D"/>
<path d="M78.6758 13.7832H86.2318L92.8259 30.7706L99.503 13.7832H107.059L96.35 40.5727H89.2268L78.6758 13.7832Z" fill="#4D4D4D"/>
<path d="M107.794 27.1715C107.728 25.3296 108.035 23.4933 108.697 21.7732C109.36 20.0532 110.363 18.4851 111.648 17.1633C112.946 15.8551 114.5 14.8294 116.213 14.1508C117.926 13.4723 119.761 13.1554 121.603 13.2202C125.688 13.2202 129.017 14.5231 131.59 17.1288C134.164 19.7346 135.448 23.0822 135.444 27.1715C135.505 29.0191 135.195 30.8601 134.533 32.5861C133.871 34.312 132.87 35.8879 131.589 37.2209C130.287 38.5336 128.728 39.5633 127.01 40.2453C125.291 40.9274 123.451 41.247 121.603 41.1843C119.757 41.2472 117.918 40.9241 116.204 40.2356C114.49 39.5472 112.939 38.5085 111.649 37.1861C110.37 35.8591 109.37 34.2892 108.708 32.5691C108.046 30.849 107.735 29.0137 107.794 27.1715ZM114.972 27.1715C114.908 29.0262 115.58 30.831 116.841 32.1927C117.449 32.8543 118.195 33.3753 119.025 33.7193C119.856 34.0634 120.751 34.2222 121.649 34.1848C122.546 34.2163 123.44 34.0548 124.27 33.7111C125.099 33.3674 125.845 32.8496 126.457 32.1927C127.699 30.8216 128.357 29.0202 128.291 27.1715C128.355 25.3232 127.697 23.5225 126.457 22.1504C125.173 20.8919 123.447 20.1869 121.649 20.1869C119.851 20.1869 118.125 20.8919 116.841 22.1504C115.589 23.5176 114.919 25.3186 114.973 27.1715H114.972Z" fill="#4D4D4D"/>
<path d="M139.727 40.5727V2.64844H147.083L147.027 40.5727H139.727Z" fill="#4D4D4D"/>
<path d="M152.34 13.7832H159.642V29.0395C159.642 31.146 160.205 32.6458 161.331 33.5387C162.38 34.4168 163.701 34.9026 165.068 34.9126C166.411 34.9126 167.707 34.4244 168.716 33.5391C169.788 32.6459 170.323 31.146 170.323 29.0395V13.7832H177.625V40.5727H170.323V38.1478C168.491 40.0976 166 41.0707 162.85 41.0673C160.156 41.1196 157.534 40.1975 155.466 38.4706C153.386 36.7395 152.345 33.9918 152.34 30.2276L152.34 13.7832Z" fill="#4D4D4D"/>
<path d="M181.129 19.2782V13.7831H184.632V5.54004H191.927V13.7831H197.649V19.2782H191.927V31.6432C191.905 32.2591 192.006 32.8732 192.223 33.4498C192.386 33.8843 192.707 34.2405 193.123 34.4456C193.476 34.6203 193.85 34.7473 194.236 34.8233C194.67 34.8915 195.109 34.9213 195.548 34.9125H197.362V40.5726H192.513C187.256 40.5726 184.63 37.9852 184.634 32.8104V19.2782H181.129Z" fill="#4D4D4D"/>
<path d="M199.75 27.1712C199.687 25.3273 199.999 23.4899 200.666 21.7697C201.333 20.0496 202.342 18.4825 203.631 17.1629C204.929 15.8547 206.484 14.829 208.198 14.1505C209.912 13.472 211.748 13.1553 213.59 13.2202C217.679 13.2202 221.006 14.5231 223.57 17.1289C226.135 19.7347 227.42 23.0822 227.424 27.1716C227.485 29.0189 227.176 30.8597 226.514 32.5855C225.853 34.3114 224.852 35.8874 223.572 37.2205C222.271 38.5326 220.713 39.5619 218.995 40.244C217.278 40.926 215.438 41.246 213.591 41.184C211.744 41.2472 209.905 40.9242 208.19 40.2358C206.475 39.5473 204.923 38.5085 203.632 37.1857C202.348 35.861 201.343 34.2921 200.676 32.5719C200.01 30.8517 199.695 29.0153 199.75 27.1712ZM206.935 27.1712C206.868 29.0263 207.54 30.8322 208.804 32.1924C209.412 32.854 210.157 33.375 210.988 33.719C211.818 34.0631 212.714 34.2219 213.612 34.1844C214.509 34.2169 215.403 34.0558 216.233 33.712C217.062 33.3683 217.808 32.85 218.42 32.1924C219.664 30.8224 220.325 29.0209 220.261 27.1712C220.322 25.3219 219.662 23.5212 218.42 22.1497C217.136 20.891 215.409 20.186 213.611 20.186C211.813 20.186 210.087 20.891 208.803 22.1497C207.55 23.5165 206.88 25.3177 206.934 27.1708L206.935 27.1712Z" fill="#4D4D4D"/>
<path d="M238.988 13.7828V18.5915C239.957 16.9546 241.343 15.6051 243.005 14.6816C244.668 13.7581 246.546 13.2939 248.447 13.3367V20.1656C242.141 20.3213 238.988 23.0278 238.988 28.285V40.5723H231.695V13.7828H238.988Z" fill="#4D4D4D"/>
</g>
<defs>
<clipPath id="clip0_687_1815">
<rect width="247.916" height="41.1159" fill="white" transform="translate(0.527344 0.198242)"/>
</clipPath>
</defs>
</svg>
